<?xml version="1.0" encoding="UTF-8" standalone="no"?>
<svg 
    role="img" 
    xmlns="http://www.w3.org/2000/svg" 
    width="1000mm"
    height="1000mm"
    viewBox="0 0 1000 1000"
    style="max-width:1.6em; height: auto;">
    
    <path 
        id="path" 
        style="opacity:1;vector-effect:none;fill:#000000;fill-opacity:1;"
        d="M 75 0C 75 0 75 0 75 0C 33 0 0 33 0 75C 0 75 0 925 0 925C 0 967 33 1000 75 1000C 75 1000 925 1000 925 1000C 967 1000 1000 967 1000 925C 1000 925 1000 75 1000 75C 1000 33 967 0 925 0C 925 0 75 0 75 0 M 585 168C 623 199 650 244 659 293 664 292 669 291 674 291 738 282 804 326 823 388 826 397 830 410 823 418 814 432 791 426 789 410 785 394 778 378 767 365 734 325 670 317 629 348 618 357 600 350 598 336 594 321 610 313 621 307 620 302 619 297 619 291 604 219 534 163 460 164 385 163 315 219 300 292 305 293 310 295 314 296 319 297 323 299 328 300 340 307 359 311 361 328 363 343 344 355 331 346 309 332 282 326 256 330 204 338 165 391 172 443 177 493 224 534 274 533 343 533 411 533 480 533 487 533 495 534 500 540 511 551 501 573 485 572 419 572 352 572 285 572 267 572 248 572 230 565 168 546 125 480 133 416 139 351 196 295 261 290 269 244 295 200 332 170 368 141 413 125 460 125 505 125 549 140 585 168ZM 642 465C 651 474 653 488 653 500 653 512 650 525 642 534 636 540 627 542 619 542 609 541 600 535 596 526 590 515 590 503 591 491 591 475 604 456 622 457 629 457 636 460 642 465ZM 844 465C 854 474 856 488 856 500 855 512 853 525 844 534 839 540 830 542 822 542 813 541 803 535 799 527 793 516 793 503 794 491 794 474 806 456 824 457 832 457 839 460 844 465ZM 575 460C 575 486 575 513 575 540 569 540 562 540 556 540 556 520 556 500 556 481 551 485 546 489 541 492 538 488 535 483 531 479 540 472 549 466 558 460 563 460 569 460 575 460ZM 778 460C 778 486 778 513 778 540 771 540 765 540 759 540 759 520 759 500 759 481 754 485 749 489 744 492 741 488 737 483 734 479 743 472 752 466 760 460 766 460 772 460 778 460ZM 611 488C 609 500 608 516 618 525 627 528 632 518 633 511 634 501 634 492 631 483 630 478 627 473 622 474 614 474 612 482 611 488ZM 813 488C 812 500 810 516 821 525 831 528 835 517 836 509 837 500 837 491 834 482 833 478 829 473 824 474 817 474 815 482 813 488ZM 770 587C 783 594 786 608 787 621 787 635 786 650 776 660 768 668 756 669 746 666 735 662 728 651 726 640 724 627 724 614 729 601 733 591 744 582 756 583 761 583 766 584 770 587ZM 573 585C 573 612 573 639 573 665 567 665 561 665 554 665 554 646 554 626 554 607 549 610 544 614 539 618 536 614 533 609 530 605 538 598 547 592 556 585 562 585 567 585 573 585ZM 640 585C 640 612 640 639 640 665 633 665 627 665 621 665 621 646 621 626 621 607 616 610 611 614 606 618 603 614 599 609 596 605 605 598 614 592 622 585 628 585 634 585 640 585ZM 706 585C 706 612 706 639 706 665 699 665 693 665 687 665 687 646 687 626 687 607 682 610 677 614 672 618 669 614 665 609 662 605 671 598 680 592 688 585 694 585 700 585 706 585ZM 745 614C 744 626 742 642 753 651 761 654 766 644 767 638 768 629 768 619 766 610 765 605 762 599 756 599 749 599 746 607 745 614ZM 568 719C 569 728 568 737 564 746 558 758 541 760 531 751 524 744 523 733 523 723 523 710 530 694 546 695 559 694 567 707 568 719ZM 664 718C 665 727 665 738 660 746 655 756 641 759 631 754 622 748 619 736 619 726 618 713 626 694 642 695 655 694 663 706 664 718ZM 816 701C 823 708 825 718 824 728 824 738 821 749 812 754 804 758 794 757 787 751 780 744 779 732 779 723 779 710 787 694 802 695 807 695 812 697 816 701ZM 606 697C 606 716 606 735 606 755 602 755 597 755 593 755 593 741 593 726 593 712 589 715 585 718 582 721 579 717 577 714 575 711 581 706 587 702 594 697 598 697 602 697 606 697ZM 702 697C 702 716 702 735 702 755 698 755 693 755 688 755 688 741 688 726 688 712 685 715 681 718 678 721 675 717 673 714 670 711 677 706 683 702 690 697 694 697 698 697 702 697ZM 862 697C 862 716 862 735 862 755 857 755 853 755 848 755 848 741 848 726 848 712 844 715 841 718 837 721 835 717 832 714 830 711 836 706 843 702 849 697 853 697 858 697 862 697ZM 543 707C 536 713 537 724 537 732 537 738 543 749 550 743 554 737 554 729 554 722 554 717 553 707 546 707 545 707 544 707 543 707ZM 634 732C 633 738 640 749 646 743 651 737 651 729 651 722 650 717 649 707 642 707 632 709 634 724 634 732ZM 793 732C 793 738 799 749 806 743 810 737 810 729 810 722 810 717 809 707 802 707 791 709 793 724 793 732ZM 771 786C 772 796 772 806 767 814 762 825 748 828 738 822 728 816 726 801 726 790 726 777 735 763 749 764 762 763 770 775 771 786ZM 865 777C 868 788 868 799 865 810 862 820 852 827 841 824 826 823 820 803 822 790 822 777 831 763 845 764 854 763 862 769 865 777ZM 809 765C 809 784 809 804 809 823 805 823 800 823 795 823 795 809 795 795 795 781 792 783 788 786 785 789 782 786 780 782 777 779 784 774 790 770 797 765 801 765 805 765 809 765ZM 747 776C 739 781 741 792 741 800 740 806 747 817 753 811 758 805 758 798 758 791 757 785 756 776 749 775 748 775 747 776 747 776ZM 842 776C 835 781 836 792 836 800 836 806 842 817 849 811 854 805 853 798 853 791 853 785 852 776 845 775 844 775 843 776 842 776ZM 555 791C 558 799 558 809 553 817 550 822 543 824 538 823 530 821 526 814 526 807 524 796 528 781 541 781 547 781 553 785 555 791ZM 583 782C 583 796 583 809 583 822 580 822 577 822 573 822 573 812 573 803 573 793 571 795 568 797 566 799 564 796 563 794 561 792 565 789 570 785 574 782 577 782 580 782 583 782ZM 536 794C 535 800 534 810 540 815 546 817 547 808 547 803 547 798 547 790 541 789 539 789 537 792 536 794ZM 673 842C 676 851 676 861 671 869 665 880 645 875 644 862 641 851 645 832 659 833 665 832 671 836 673 842ZM 701 834C 701 847 701 861 701 874 698 874 695 874 691 874 691 864 691 854 691 844 689 846 686 848 684 850 682 848 681 846 679 843 683 840 688 837 692 834 695 834 698 834 701 834ZM 658 841C 652 845 654 853 653 858 653 862 658 870 662 865 665 862 665 857 665 852 665 848 665 841 659 841 659 841 658 841 658 841Z"
        transform="">
    </path>    
</svg>